<svg id="Ebene_1" data-name="Ebene 1" xmlns="http://www.w3.org/2000/svg" viewBox="0 0 256 256"><defs><style>.cls-1{fill:#7d858c;}.cls-2{fill:#fff;}.cls-3{fill:#37434e;}.cls-4{fill:#a7b2bb;}.cls-5{fill:#3687cf;}.cls-6{fill:#282c36;}.cls-7{fill:aqua;}</style></defs><title>Zeichenfläche 2</title><path class="cls-1" d="M2.13,109.14C9.64,160,39.85,197.42,69.61,192.68S117.4,142.84,109.9,92,73.37,13.74,43.61,18.48-5.38,58.26,2.13,109.14Z"/><path class="cls-2" d="M82.21,162.44s-55.07,38.29-75.58,1.08C9.71,180.77,17.75,206.59,57.37,207S104,166.94,82.21,162.44Z"/><path class="cls-3" d="M82.21,162.44C103.89,166.92,97.05,207,57.93,207h-.56c-39.62-.38-47.66-26.2-50.74-43.45,6.7,12.17,17.1,16.26,28.07,16.26,22.56,0,47.51-17.34,47.51-17.34m-80-11.27L4.53,163.9C8,183.12,17.18,208.71,57.35,209.1h.58c23.33,0,37-14.3,38.45-28.42,1-10.25-4.48-18.42-13.74-20.34l-.9-.19-.75.53c-.24.17-24.67,17-46.29,17-11.85,0-20.66-5.1-26.21-15.16L2.25,151.17Z"/><path class="cls-1" d="M253.87,109.14c-7.51,50.88-37.72,88.28-67.48,83.54S138.6,142.84,146.1,92s36.53-78.23,66.29-73.49S261.38,58.26,253.87,109.14Z"/><path class="cls-3" d="M185.9,34.09l-5.16,141.18s43-20,43-68.67S190.73,35,185.9,34.09Z"/><path class="cls-3" d="M70.61,34.09l5.16,140.09s-43-19.88-43-68.14S65.78,35,70.61,34.09Z"/><path class="cls-2" d="M172.64,163.15s55.07,38.3,75.58,1.08c-3.08,17.26-11.12,43.07-50.74,43.45S150.86,167.65,172.64,163.15Z"/><path class="cls-3" d="M172.64,163.15s25,17.35,47.51,17.35c11,0,21.37-4.1,28.07-16.27-3.08,17.26-11.12,43.07-50.74,43.45h-.56c-39.12,0-46-40.05-24.28-44.53m80-11.27-6.24,11.33c-5.55,10-14.36,15.15-26.21,15.15-21.64,0-46.05-16.79-46.29-17l-.75-.53-.9.19C163,163,157.43,171.15,158.48,181.4c1.44,14.12,15.11,28.42,38.44,28.42h.58c40.17-.39,49.38-26,52.82-45.2l2.28-12.73Z"/><path class="cls-4" d="M213.17,103.94c0-50.49-22.9-86.57-84.75-86.57-62.46,0-84.75,36.08-84.75,86.57,0,31.81,15.07,59.82,37.93,76.19A89.38,89.38,0,0,0,181,175.62C200.6,158.88,213.17,133,213.17,103.94Z"/><path class="cls-4" d="M179.52,155.81c0-16.94-14.1-30.67-51.13-30.67s-51.12,13.73-51.12,30.67c0,8.66-10,7.51-1.5,18.37,1.9,2.44,13.35,8.78,14.58,10,9.73,9.81,12,20.16,4.43,27.44-12.2,11.68-30,12-58.64-.53a98,98,0,0,1-24.39-15.5C10,194.12-.16,196.93.53,200.48c5.31,27.23,29,54.18,74.1,54.18,46.58,0,85.12-29.46,90.42-57.78a28.79,28.79,0,0,1,1.61-5.59,20.83,20.83,0,0,1,7.15-11.88,46.48,46.48,0,0,0,7.2-5.17C187.07,168.55,179.52,161.94,179.52,155.81Z"/><path class="cls-5" d="M168.4,22.8c4.86-2.57,10.31-3.53,14.16,1.38-1-3.26-5.74-7.55-12.48-8.13,4.64-2.24,10.7-3.23,18.34-1C183.7,12.36,170.49,10,158.9,13c.23-.56.45-1.12.62-1.65,2.59-8,6.82-5.89,7.1-5.74C154.38-1.43,144.8,24,146.3,15.81a11.66,11.66,0,0,0,.14-3.12,10.74,10.74,0,0,1,6.05-3.89c-1.7-.84-4.32-1-7.23-.75-2.13-5-6.55-8.32-9.14-5.91,1.46,1.5,2,4.19,2.07,7.34a36,36,0,0,0-3.62,1.31C130,1.49,120.81,3.71,117.32,7.5c6.19-3.46,9.07,2,10.41,8-.53.75-1.31.38-1.31,1.15,0,6.28-9.41-12.73-36.73-8.92.62-.07,9.93-1.13,12.19,5.16.9,2.5.38,3.36,3.8,6.18-25-10.33-49.65-3.33-55,.59C61.48,16,73.6,18.24,83,21.34,70.12,24.25,60.44,31.6,61.87,33.43c24.19-15.26,34.74-4.07,36.37-2,1.43,2.65,7.67,5.92,29.84,5.9,25.06,0,30.28-4.54,30.78-7.27a46.51,46.51,0,0,1,4.31-3.77c3.66-1.61,9.69-2.61,19.57-1.06C183.14,24.12,176.49,22.5,168.4,22.8Z"/><path class="cls-6" d="M159.21,78.42c14.84-2.27,28.86,8.85,31.31,24.85a24,24,0,0,0,0-6.47c-2.45-16-16.47-27.13-31.31-24.85-12.79,2-22,13.23-22.72,26.55a.51.51,0,0,0,1,.15C140.32,88.23,148.51,80.07,159.21,78.42Z"/><path class="cls-6" d="M98.68,78.42c-14.84-2.27-28.86,8.85-31.31,24.85a23,23,0,0,1,0-6.47C69.82,80.8,83.84,69.67,98.68,72c12.78,2,22,13.23,22.71,26.55a.51.51,0,0,1-1,.15C117.56,88.23,109.38,80.07,98.68,78.42Z"/><path class="cls-7" d="M175.74,103.54s20,10,31.8-.6,24-7.39,24-7.39c9.18,2,14.81,12.06,12.57,22.56s-11.5,17.43-20.68,15.47C205.18,129.69,175.74,103.54,175.74,103.54Z"/><path class="cls-7" d="M83.66,101.45s-17.55,13.88-31.25,5.87-25-2.37-25-2.37c-8.59,3.78-12,14.81-7.73,24.64s14.79,14.73,23.38,11C60.15,133,83.66,101.45,83.66,101.45Z"/><path class="cls-7" d="M189.62,77.51S206.89,71,207,57.86s8.92-18.71,8.92-18.71c6.32-4.48,15.6-2.26,20.72,5s4.17,16.72-2.15,21.2C222,74.23,189.62,77.51,189.62,77.51Z"/><path class="cls-7" d="M62.69,78s-17.12-6.92-17-20-8.5-18.89-8.5-18.89c-6.22-4.62-15.55-2.6-20.83,4.51S11.86,60.2,18.08,64.82C30.44,74,62.69,78,62.69,78Z"/></svg>