<svg id="Ebene_1" data-name="Ebene 1" xmlns="http://www.w3.org/2000/svg" viewBox="0 0 256 256"><defs><style>.cls-1{fill:#e67587;}.cls-2{fill:#7d858c;}.cls-3{fill:#37434e;}.cls-4{fill:#fff;}.cls-5{fill:#a7b2bb;}.cls-6{fill:#3687cf;}.cls-7{fill:#efecdb;}.cls-8{fill:#282c36;}</style></defs><title>Zeichenfläche 9</title><path class="cls-1" d="M207.13,221.76c26.63,18.19-27.8,45.76-52.46,26.35A98.25,98.25,0,0,1,128.42,196l44.49-22.43C171.28,196.2,188,209.64,207.13,221.76Z"/><path class="cls-2" d="M2.13,109.06c7.51,50.88,37.72,88.28,67.48,83.53S117.4,142.76,109.9,91.88,73.37,13.66,43.61,18.4-5.38,58.18,2.13,109.06Z"/><path class="cls-2" d="M253.87,109.06c-7.51,50.88-37.72,88.28-67.48,83.53S138.6,142.76,146.1,91.88s36.53-78.22,66.29-73.48S261.38,58.18,253.87,109.06Z"/><path class="cls-3" d="M185.9,34l-5.16,141.18s43-20,43-68.68S190.73,35,185.9,34Z"/><path class="cls-3" d="M70.61,34,75.77,174.1s-43-19.88-43-68.15S65.78,34.94,70.61,34Z"/><path class="cls-4" d="M172.91,159.28s21.36,57.69,56.31,40.44c-11.37,11.36-30.95,26.57-61,6.1S154.15,151.25,172.91,159.28Z"/><path class="cls-3" d="M167.29,158.08a14.18,14.18,0,0,1,5.61,1.2s16.18,43.66,43.39,43.66a29.06,29.06,0,0,0,12.93-3.22c-7.3,7.29-18,16.18-32.65,16.18-8.17,0-17.57-2.76-28.31-10.08-26.95-18.38-16.88-47.74-1-47.74m0-2.13h0c-7.5,0-14.06,5.56-16.71,14.16-3.09,10-.62,25.8,16.48,37.47,10.16,6.93,20.09,10.45,29.51,10.45,15.54,0,26.94-9.59,34.15-16.81l9.15-9.14-11.6,5.72a26.9,26.9,0,0,1-12,3c-25.41,0-41.23-41.84-41.39-42.26l-.32-.86-.84-.36a16.33,16.33,0,0,0-6.45-1.37Z"/><path class="cls-4" d="M86.49,157.4s-21.37,57.69-56.32,40.43c11.37,11.37,30.95,26.58,61,6.1S105.24,149.37,86.49,157.4Z"/><path class="cls-3" d="M92.1,156.2c15.91,0,26,29.35-1,47.73C80.4,211.26,71,214,62.82,214c-14.66,0-25.35-8.89-32.64-16.19a28.86,28.86,0,0,0,12.92,3.22c27.21,0,43.39-43.65,43.39-43.65a14.18,14.18,0,0,1,5.61-1.2m0-2.14a16.38,16.38,0,0,0-6.45,1.38l-.84.36-.32.86c-.16.42-16,42.26-41.39,42.26a27,27,0,0,1-12-3l-11.6-5.73,9.15,9.15c7.21,7.22,18.61,16.81,34.15,16.81,9.42,0,19.35-3.52,29.52-10.46,17.1-11.66,19.56-27.47,16.48-37.47-2.66-8.6-9.22-14.16-16.72-14.16Z"/><path class="cls-5" d="M213.17,103.85c0-50.48-22.9-86.57-84.75-86.57-62.46,0-84.75,36.09-84.75,86.57,0,31.82,15.07,59.83,37.93,76.2A89.38,89.38,0,0,0,181,175.54C200.6,158.79,213.17,132.91,213.17,103.85Z"/><path class="cls-5" d="M179.52,155.73c0-16.94-14.1-30.68-51.13-30.68s-51.12,13.74-51.12,30.68c0,8.66-10,7.51-1.5,18.37,1.9,2.43,13.35,8.77,14.58,10,9.73,9.8,12,20.16,4.43,27.43-12.2,11.68-30,12-58.64-.52a98.31,98.31,0,0,1-24.39-15.5C10,194-.16,196.85.53,200.4c5.31,27.22,29,54.18,74.1,54.18,46.58,0,85.12-29.47,90.42-57.78a28.59,28.59,0,0,1,1.61-5.59,20.83,20.83,0,0,1,7.15-11.88,46.48,46.48,0,0,0,7.2-5.17C187.07,168.47,179.52,161.85,179.52,155.73Z"/><path class="cls-6" d="M168.4,22.72c4.86-2.57,10.31-3.53,14.16,1.38-1-3.26-5.74-7.56-12.48-8.13,4.64-2.24,10.7-3.24,18.34-1-4.72-2.73-17.93-5.11-29.52-2,.23-.56.45-1.12.62-1.65,2.59-8,6.82-5.89,7.1-5.74C154.38-1.52,144.8,23.88,146.3,15.73a11.68,11.68,0,0,0,.14-3.12,10.74,10.74,0,0,1,6.05-3.89c-1.7-.84-4.32-1-7.23-.75-2.13-5-6.55-8.33-9.14-5.92,1.46,1.5,2,4.2,2.07,7.35a36,36,0,0,0-3.62,1.31c-4.56-9.3-13.76-7.08-17.25-3.29,6.19-3.46,9.07,2,10.41,8-.53.75-1.31.37-1.31,1.15,0,6.28-9.41-12.73-36.73-8.92.62-.08,9.93-1.13,12.19,5.15.9,2.51.38,3.37,3.8,6.19-25-10.34-49.65-3.34-55,.59C61.48,16,73.6,18.16,83,21.25c-12.87,2.92-22.55,10.26-21.12,12.1,24.19-15.27,34.74-4.07,36.37-2,1.43,2.65,7.67,5.91,29.84,5.9,25.06,0,30.28-4.54,30.78-7.27a46.51,46.51,0,0,1,4.31-3.77c3.66-1.61,9.69-2.62,19.57-1.06C183.14,24,176.49,22.42,168.4,22.72Z"/><path class="cls-6" d="M53.71,83.43s7.17-31.3,37.34-39.16c8.13-.9,8.65,9.81,3.14,10.16C86.47,54.92,74,52.1,53.71,83.43Z"/><path class="cls-6" d="M195.75,92.29s-14.85-28.47-46-28.46c-8.09,1.18-5.9,11.67-.48,10.62C156.85,73,168.2,67.1,195.75,92.29Z"/><ellipse class="cls-7" cx="160.31" cy="122.21" rx="29.26" ry="27.14" transform="translate(2.48 247.61) rotate(-75.79)"/><circle class="cls-8" cx="160.31" cy="128.59" r="16.29"/><ellipse class="cls-7" cx="87.05" cy="92.7" rx="29.26" ry="27.14" transform="translate(-8.43 176.69) rotate(-88.14)"/><circle class="cls-8" cx="83.97" cy="86.72" r="16.29"/></svg>