<svg id="Ebene_1" data-name="Ebene 1" xmlns="http://www.w3.org/2000/svg" viewBox="0 0 256 256"><defs><style>.cls-1{fill:#7d858c;}.cls-2{fill:#37434e;}.cls-3{fill:#fff;}.cls-4{fill:#a7b2bb;}.cls-5{fill:#282c36;}.cls-6{fill:#fbffff;}.cls-7{fill:#ff0;}.cls-8{fill:#1989b6;}.cls-9{fill:#cb8a5b;}.cls-10{fill:#3687cf;}</style></defs><title>12</title><path class="cls-1" d="M2.13,109.68C9.64,160.56,39.85,198,69.61,193.22S117.4,143.39,109.9,92.51,73.37,14.29,43.61,19-5.38,58.8,2.13,109.68Z"/><path class="cls-1" d="M253.87,109.68c-7.51,50.88-37.72,88.28-67.48,83.54S138.6,143.39,146.1,92.51,182.63,14.29,212.39,19,261.38,58.8,253.87,109.68Z"/><path class="cls-2" d="M185.9,34.63l-5.16,141.19s43-20,43-68.68S190.73,35.57,185.9,34.63Z"/><path class="cls-2" d="M70.61,34.63l5.16,140.09s-43-19.88-43-68.14S65.78,35.57,70.61,34.63Z"/><path class="cls-3" d="M172.91,159.91s21.36,57.68,56.31,40.43c-11.37,11.37-30.95,26.58-61,6.1S154.15,151.88,172.91,159.91Z"/><path class="cls-2" d="M167.29,158.71a14.18,14.18,0,0,1,5.61,1.2s16.18,43.65,43.39,43.65a28.93,28.93,0,0,0,12.93-3.22c-7.3,7.3-18,16.19-32.65,16.19-8.17,0-17.57-2.76-28.31-10.09-26.95-18.38-16.88-47.73-1-47.73m0-2.14h0c-7.5,0-14.06,5.56-16.71,14.16-3.09,10-.62,25.81,16.48,37.47,10.16,6.94,20.09,10.46,29.51,10.46,15.55,0,26.94-9.59,34.15-16.81l9.15-9.15-11.6,5.73a27,27,0,0,1-12,3c-25.4,0-41.23-41.84-41.39-42.26l-.31-.86-.85-.36a16.35,16.35,0,0,0-6.45-1.38Z"/><path class="cls-3" d="M86.49,158s-21.37,57.69-56.32,40.44c11.37,11.36,30.95,26.57,61,6.1S105.24,150,86.49,158Z"/><path class="cls-2" d="M92.1,156.82c15.91,0,26,29.36-1,47.74C80.4,211.89,71,214.64,62.83,214.64c-14.67,0-25.36-8.88-32.65-16.18a29,29,0,0,0,12.92,3.22c27.21,0,43.39-43.66,43.39-43.66a14.18,14.18,0,0,1,5.61-1.2m0-2.13a16.33,16.33,0,0,0-6.45,1.37l-.84.36-.32.86c-.16.43-16,42.27-41.39,42.27a27,27,0,0,1-12-3l-11.6-5.73L28.67,200c7.21,7.21,18.61,16.8,34.16,16.8,9.41,0,19.34-3.51,29.51-10.45,17.1-11.66,19.56-27.48,16.48-37.47-2.66-8.6-9.22-14.16-16.72-14.16Z"/><path class="cls-4" d="M213.17,104.48c0-50.49-22.9-86.57-84.75-86.57C66,17.91,43.67,54,43.67,104.48c0,31.81,15.07,59.83,37.93,76.2A89.36,89.36,0,0,0,181,176.16C200.6,159.42,213.17,133.54,213.17,104.48Z"/><path class="cls-4" d="M179.52,156.36c0-16.94-14.1-30.68-51.13-30.68s-51.12,13.74-51.12,30.68c0,8.66-10,7.51-1.5,18.36,1.9,2.44,13.35,8.78,14.58,10,9.73,9.8,12,20.16,4.43,27.43-12.2,11.68-30,12-58.64-.52a98.6,98.6,0,0,1-24.39-15.5C10,194.66-.16,197.48.53,201c5.31,27.23,29,54.18,74.1,54.18,46.58,0,85.12-29.46,90.42-57.77a28.59,28.59,0,0,1,1.61-5.59A20.83,20.83,0,0,1,173.81,180a46.87,46.87,0,0,0,7.2-5.18C187.07,169.1,179.52,162.48,179.52,156.36Z"/><path class="cls-5" d="M154.77,82.19c12.92-2,25.13,7.7,27.27,21.63a21.06,21.06,0,0,0,0-5.63c-2.14-13.93-14.35-23.62-27.27-21.64C143.64,78.26,135.63,88.07,135,99.66a.45.45,0,0,0,.88.14C138.33,90.72,145.45,83.62,154.77,82.19Z"/><path class="cls-5" d="M102.07,82.19c-12.93-2-25.13,7.7-27.27,21.63a20.59,20.59,0,0,1,0-5.63c2.14-13.93,14.34-23.62,27.27-21.64,11.13,1.71,19.13,11.52,19.77,23.11a.44.44,0,0,1-.87.14C118.51,90.72,111.38,83.62,102.07,82.19Z"/><path class="cls-6" d="M127.91,7.43c15.73,0,31.46.4,47.2,1.57,7.86.62,15.74,1.33,23.59,2.73a95,95,0,0,1,11.78,2.74,32.8,32.8,0,0,1,5.9,2.47l.74.43.74.51a10.29,10.29,0,0,1,1.47,1.25A5.9,5.9,0,0,1,220,20a5,5,0,0,1,.63,1,6.94,6.94,0,0,1,.5,1.22,11.62,11.62,0,0,1,.22,1.42,11.72,11.72,0,0,1-.15,1.44,7.48,7.48,0,0,1-.43,1.26,5.55,5.55,0,0,1-.59,1.06,6.19,6.19,0,0,1-.67.9,10.87,10.87,0,0,1-1.42,1.39l-.72.6-.72.5a35.8,35.8,0,0,1-5.8,3.08,90,90,0,0,1-11.69,3.89,217.93,217.93,0,0,1-23.64,4.66,345.91,345.91,0,0,1-47.65,3.19A346,346,0,0,1,80.25,42.4a215.55,215.55,0,0,1-23.64-4.66,88.62,88.62,0,0,1-11.7-3.89,35.11,35.11,0,0,1-5.8-3.09l-.72-.5-.73-.59a11.65,11.65,0,0,1-1.42-1.4,6.79,6.79,0,0,1-.67-.9A5.55,5.55,0,0,1,35,26.31,7.7,7.7,0,0,1,34.55,25a11.53,11.53,0,0,1-.16-1.44,13.13,13.13,0,0,1,.23-1.42,6.71,6.71,0,0,1,.49-1.23,5.08,5.08,0,0,1,.65-1,6,6,0,0,1,.7-.83,10.34,10.34,0,0,1,1.48-1.25l.74-.52.74-.42a32.64,32.64,0,0,1,5.91-2.48,96.31,96.31,0,0,1,11.78-2.73C65,10.32,72.84,9.6,80.71,9,96.44,7.82,112.18,7.45,127.91,7.43Zm0,0a340.56,340.56,0,0,0-47,3.15,212.75,212.75,0,0,0-23,4.56A82.2,82.2,0,0,0,47,18.81a27.39,27.39,0,0,0-4.75,2.56l-.5.36-.43.37a4.83,4.83,0,0,0-.71.74c-.35.47-.39.8-.33.75s.16.18.55.56a6.78,6.78,0,0,0,.76.58L42,25l.53.28a29.26,29.26,0,0,0,4.84,2,95.77,95.77,0,0,0,11,2.5c7.53,1.33,15.25,2,23,2.63,15.45,1.14,31,1.52,46.57,1.54s31.11-.38,46.57-1.52c7.72-.59,15.44-1.3,23-2.62a91.47,91.47,0,0,0,11-2.5,28.41,28.41,0,0,0,4.84-2l.53-.28.45-.31a4.67,4.67,0,0,0,.77-.58c.39-.38.51-.61.56-.58s0-.3-.34-.77a4.94,4.94,0,0,0-.72-.74l-.43-.38-.5-.36a28.45,28.45,0,0,0-4.75-2.55A82.83,82.83,0,0,0,198,15.12a210.81,210.81,0,0,0-23-4.55A342.33,342.33,0,0,0,127.91,7.43Z"/><path class="cls-7" d="M127.92,49.83a349.58,349.58,0,0,1-48.26-3.21,220.91,220.91,0,0,1-24.11-4.75,92,92,0,0,1-12.28-4.09,38.57,38.57,0,0,1-6.55-3.49L34.94,33a16.09,16.09,0,0,1-1.85-1.81,8.83,8.83,0,0,1-.93-1.21A9.22,9.22,0,0,1,31,27.73a9.17,9.17,0,0,1-.61-1.88,17.08,17.08,0,0,1-.22-2,14,14,0,0,1,.31-2.55,9,9,0,0,1,.69-1.89,8.2,8.2,0,0,1,1.15-1.92,8.61,8.61,0,0,1,1.51-1.68,11,11,0,0,1,1.86-1.52l1.64-1A37,37,0,0,1,44,10.39,98.49,98.49,0,0,1,56.36,7.52c8.4-1.5,16.8-2.22,24-2.78,14.24-1.06,29.34-1.55,47.52-1.58h0c18.2,0,33.3.52,47.5,1.59,7.27.57,15.71,1.3,24,2.78a97.39,97.39,0,0,1,12.31,2.87,37.53,37.53,0,0,1,6.7,2.82l1.84,1.17a15.39,15.39,0,0,1,2,1.65,7.21,7.21,0,0,1,1,1.18,9.78,9.78,0,0,1,1.27,2,9,9,0,0,1,.73,1.93,14.44,14.44,0,0,1,.33,2,15.32,15.32,0,0,1-.19,2.47,10.37,10.37,0,0,1-.56,1.88,9.51,9.51,0,0,1-1,1.93,11.82,11.82,0,0,1-1.35,1.77A13.87,13.87,0,0,1,220.74,33l-1.61,1.22a40.57,40.57,0,0,1-6.54,3.49,94.73,94.73,0,0,1-12.3,4.1,221.08,221.08,0,0,1-24.12,4.76A348.3,348.3,0,0,1,127.92,49.83Zm-66-15.17c6,1.39,12.19,2.55,19,3.52a340.27,340.27,0,0,0,47.06,3.12,340.28,340.28,0,0,0,47-3.15c6.55-.95,12.55-2.06,18.21-3.36-6.21.89-12.45,1.43-18.37,1.89-13.91,1-28.81,1.5-46.88,1.52S95.09,37.68,81,36.65C74.87,36.16,68.41,35.61,61.91,34.66ZM48,23l.63.2a88.34,88.34,0,0,0,10.47,2.37c7.53,1.33,15.26,2,22.54,2.57,13.83,1,28.53,1.51,46.25,1.54s32.55-.5,46.24-1.51c7.3-.55,15.08-1.25,22.55-2.57a89,89,0,0,0,10.49-2.38l.67-.21c-.24-.11-.47-.22-.72-.32a76.91,76.91,0,0,0-10.29-3.44,202.33,202.33,0,0,0-22.53-4.46,336.23,336.23,0,0,0-46.42-3.1A334.08,334.08,0,0,0,81.48,14.8,203.16,203.16,0,0,0,59,19.27a76.31,76.31,0,0,0-10.32,3.46Zm-11.2,3.18-1.25,1.19,1.5-.9ZM213.05,27s0,0,0,0ZM42.31,24.24,42,25l.48-.65Z"/><path class="cls-8" d="M127.89,3.59h0Z"/><path class="cls-9" d="M127.91.8h0Z"/><path class="cls-10" d="M168.4,23.35c4.86-2.57,10.31-3.53,14.16,1.38-1-3.27-5.74-7.56-12.48-8.13,4.64-2.24,10.7-3.24,18.34-1-4.72-2.73-17.93-5.12-29.52-2.06.23-.56.45-1.11.62-1.65,2.59-8,6.82-5.88,7.1-5.73C154.38-.89,144.8,24.51,146.3,16.36a11.75,11.75,0,0,0,.14-3.13,10.84,10.84,0,0,1,6.05-3.89c-1.7-.83-4.32-1-7.23-.75-2.13-4.95-6.55-8.32-9.14-5.91,1.46,1.5,2,4.19,2.07,7.34-1.25.39-2.47.83-3.62,1.32C130,2,120.81,4.26,117.32,8c6.19-3.46,9.07,2,10.41,8-.53.75-1.31.38-1.31,1.16,0,6.28-9.41-12.74-36.73-8.92.62-.08,9.93-1.13,12.19,5.15.9,2.5.38,3.37,3.8,6.19-25-10.34-49.65-3.34-55,.58,10.79-3.61,22.91-1.4,32.3,1.69C70.12,24.8,60.44,32.14,61.87,34,79.2,23,89.52,25.68,94.59,28.81c2,1.24,65.32.74,66,.16s1.57-1.36,2.6-2.17c3.66-1.61,9.69-2.61,19.57-1.06C183.14,24.67,176.49,23,168.4,23.35Z"/></svg>