<svg id="Ebene_1" data-name="Ebene 1" xmlns="http://www.w3.org/2000/svg" viewBox="0 0 256 256"><defs><style>.cls-1{fill:#787878;}.cls-2{fill:#9ba1a8;}.cls-3{fill:#ececec;}.cls-4{fill:#5d5d5c;}.cls-5{fill:#8e9391;}.cls-6{fill:#f1f0f1;}.cls-7{fill:#97271b;}.cls-8{fill:#636d6a;}.cls-9{fill:#dedfdc;}</style></defs><title>13</title><rect class="cls-1" x="15" y="203.5" width="32" height="27" rx="5.1" ry="5.1"/><rect class="cls-2" x="31" y="217.5" width="53" height="27" rx="6.05" ry="6.05"/><rect class="cls-1" x="74" y="224.5" width="82" height="27" rx="4.07" ry="4.07"/><rect class="cls-2" x="85.5" y="199.5" width="82" height="27" rx="4.04" ry="4.04"/><rect class="cls-1" x="74" y="180.5" width="105" height="27" rx="4.71" ry="4.71"/><rect class="cls-2" x="59.5" y="165.5" width="134" height="20" rx="4.76" ry="4.76"/><polygon class="cls-3" points="64 183.5 189 183.5 189 174.26 186.67 180.26 64 183.5"/><polygon class="cls-4" points="189 170.5 64 170.5 64 180.5 68 176.5 189 170.5"/><ellipse class="cls-2" cx="225.47" cy="100.37" rx="88" ry="28.48" transform="translate(100.75 313.34) rotate(-83.64)"/><ellipse class="cls-2" cx="30.64" cy="100.36" rx="28.37" ry="88" transform="translate(-10.93 4.01) rotate(-6.36)"/><path class="cls-5" d="M195.29,170.5H60.71A11.5,11.5,0,0,1,49.3,160.41l-15.2-123A11.5,11.5,0,0,1,45.51,24.5h165A11.5,11.5,0,0,1,221.9,37.41l-15.2,123A11.5,11.5,0,0,1,195.29,170.5Z"/><path class="cls-2" d="M73.5,4.5h109a20,20,0,0,1,20,20v0a0,0,0,0,1,0,0H53.5a0,0,0,0,1,0,0v0A20,20,0,0,1,73.5,4.5Z"/><path class="cls-6" d="M53,24.5H203S125,12.5,53,24.5Z"/><polygon class="cls-6" points="55 28.5 38.38 31.51 55.33 151.17 44 36.5 55 28.5"/><polygon class="cls-6" points="187.04 155.94 203.87 157.35 218.62 37.41 199.74 151.07 187.04 155.94"/><rect class="cls-7" x="74" y="50.5" width="36" height="36"/><rect class="cls-7" x="147" y="50.5" width="36" height="36"/><path class="cls-8" d="M240.32,111l-23.83-1.31c-3.36-.5-1.53-12.74,1.83-12.24l23.17,5.72Z"/><circle class="cls-9" cx="243.15" cy="107.41" r="7.92"/><path class="cls-8" d="M14.45,111l23.84-1.31c3.36-.5,1.52-12.74-1.83-12.24l-23.18,5.72Z"/><circle class="cls-9" cx="11.63" cy="107.41" r="7.92"/><polygon class="cls-3" points="79 205.5 175 205.5 175 196.26 173.21 202.26 79 205.5"/><polygon class="cls-3" points="90 224.5 163 224.5 163 215.26 161.64 221.26 90 224.5"/><polygon class="cls-3" points="79 249.5 152 249.5 152 240.26 150.64 246.26 79 249.5"/></svg>