<svg id="Ebene_1" data-name="Ebene 1" xmlns="http://www.w3.org/2000/svg" xmlns:xlink="http://www.w3.org/1999/xlink" viewBox="0 0 256 256"><defs><style>.cls-1{fill:#7d858c;}.cls-2{fill:#37434e;}.cls-3{fill:#fff;}.cls-4{fill:#a7b2bb;}.cls-5{fill:#3687cf;}.cls-6{fill:#282c36;}.cls-7{fill:url(#Unbenannter_Verlauf_2);}.cls-8{fill:url(#Unbenannter_Verlauf_90);}</style><radialGradient id="Unbenannter_Verlauf_2" cx="49.68" cy="1244.25" r="29.51" gradientTransform="matrix(1, 0, 0, 0.67, 119.99, -692.57)" gradientUnits="userSpaceOnUse"><stop offset="0" stop-color="#b26965"/><stop offset="0.11" stop-color="#b26965" stop-opacity="0.94"/><stop offset="0.31" stop-color="#b26965" stop-opacity="0.78"/><stop offset="0.56" stop-color="#b26965" stop-opacity="0.52"/><stop offset="0.87" stop-color="#b26965" stop-opacity="0.17"/><stop offset="1" stop-color="#b26965" stop-opacity="0"/></radialGradient><radialGradient id="Unbenannter_Verlauf_90" cx="-9536.92" cy="-974.68" r="29.51" gradientTransform="matrix(0, -1, -0.67, 0, -535.42, -9400.2)" xlink:href="#Unbenannter_Verlauf_2"/></defs><title>16</title><path class="cls-1" d="M2.13,109.14C9.64,160,39.85,197.42,69.61,192.68S117.4,142.84,109.9,92,73.37,13.74,43.61,18.48-5.38,58.26,2.13,109.14Z"/><path class="cls-1" d="M253.87,109.14c-7.51,50.88-37.72,88.28-67.48,83.54S138.6,142.84,146.1,92s36.53-78.23,66.29-73.49S261.38,58.26,253.87,109.14Z"/><path class="cls-2" d="M185.9,34.09l-5.16,141.18s43-20,43-68.67S190.73,35,185.9,34.09Z"/><path class="cls-2" d="M70.61,34.09l5.16,140.09s-43-19.88-43-68.14S65.78,35,70.61,34.09Z"/><path class="cls-3" d="M172.91,159.36s21.36,57.69,56.31,40.44c-11.37,11.36-30.95,26.57-61,6.1S154.15,151.34,172.91,159.36Z"/><path class="cls-2" d="M167.29,158.16a14.26,14.26,0,0,1,5.62,1.2S189.08,203,216.29,203a29.06,29.06,0,0,0,12.93-3.22c-7.3,7.3-18,16.18-32.65,16.18-8.17,0-17.57-2.75-28.31-10.08-26.95-18.38-16.88-47.74-1-47.74m0-2.13h0c-7.5,0-14.06,5.56-16.72,14.16-3.08,10-.61,25.81,16.49,37.47,10.16,6.94,20.09,10.45,29.51,10.45,15.54,0,26.94-9.59,34.15-16.8l9.15-9.15-11.6,5.73a27,27,0,0,1-12,3c-25.41,0-41.23-41.85-41.39-42.27l-.31-.86-.85-.36a16.3,16.3,0,0,0-6.45-1.37Z"/><path class="cls-3" d="M86.49,157.48s-21.37,57.69-56.32,40.44c11.37,11.36,30.95,26.57,61,6.1S105.24,149.45,86.49,157.48Z"/><path class="cls-2" d="M92.1,156.28c15.91,0,26,29.36-1,47.74C80.4,211.34,71,214.1,62.83,214.1c-14.67,0-25.36-8.89-32.66-16.18a29.06,29.06,0,0,0,12.93,3.22c27.21,0,43.39-43.66,43.39-43.66a14.18,14.18,0,0,1,5.61-1.2m0-2.13a16.33,16.33,0,0,0-6.45,1.37l-.84.36-.32.86c-.16.42-16,42.26-41.39,42.26a27,27,0,0,1-12-3l-11.6-5.72,9.15,9.14c7.21,7.22,18.61,16.81,34.16,16.81,9.41,0,19.34-3.52,29.51-10.45,17.1-11.67,19.56-27.48,16.48-37.48-2.66-8.6-9.22-14.15-16.72-14.15Z"/><path class="cls-4" d="M213.17,103.94c0-50.49-22.9-86.57-84.75-86.57-62.46,0-84.75,36.08-84.75,86.57,0,31.81,15.07,59.82,37.93,76.19A89.38,89.38,0,0,0,181,175.62C200.6,158.88,213.17,133,213.17,103.94Z"/><path class="cls-4" d="M179.52,155.81c0-16.94-14.1-30.67-51.13-30.67s-51.12,13.73-51.12,30.67c0,8.66-10,7.51-1.5,18.37,1.9,2.44,13.35,8.78,14.58,10,9.73,9.81,12,20.16,4.43,27.44-12.2,11.68-30,12-58.64-.53a98,98,0,0,1-24.39-15.5C10,194.12-.16,196.93.53,200.48c5.31,27.23,29,54.18,74.1,54.18,46.58,0,85.12-29.46,90.42-57.78a28.79,28.79,0,0,1,1.61-5.59,20.83,20.83,0,0,1,7.15-11.88,46.48,46.48,0,0,0,7.2-5.17C187.07,168.55,179.52,161.94,179.52,155.81Z"/><path class="cls-5" d="M168.4,22.8c4.86-2.57,10.31-3.53,14.16,1.38-1-3.26-5.74-7.55-12.48-8.13,4.64-2.24,10.7-3.23,18.34-1C183.7,12.36,170.49,10,158.9,13c.23-.56.45-1.12.62-1.65,2.59-8,6.82-5.89,7.1-5.74C154.38-1.43,144.8,24,146.3,15.81a11.66,11.66,0,0,0,.14-3.12,10.74,10.74,0,0,1,6.05-3.89c-1.7-.84-4.32-1-7.23-.75-2.13-5-6.55-8.32-9.14-5.91,1.46,1.5,2,4.19,2.07,7.34a36,36,0,0,0-3.62,1.31C130,1.49,120.81,3.71,117.32,7.5c6.19-3.46,9.07,2,10.41,8-.53.75-1.31.38-1.31,1.15,0,6.28-9.41-12.73-36.73-8.92.62-.07,9.93-1.13,12.19,5.16.9,2.5.38,3.36,3.8,6.18-25-10.33-49.65-3.33-55,.59C61.48,16,73.6,18.24,83,21.34,70.12,24.25,60.44,31.6,61.87,33.43c24.19-15.26,34.74-4.07,36.37-2,1.43,2.65,7.67,5.92,29.84,5.9,25.06,0,30.28-4.54,30.78-7.27a46.51,46.51,0,0,1,4.31-3.77c3.66-1.61,9.69-2.61,19.57-1.06C183.14,24.12,176.49,22.5,168.4,22.8Z"/><path class="cls-6" d="M159.71,79.51c15.06-2.31,29.28,9,31.77,25.21a24.24,24.24,0,0,0,0-6.57C189,81.92,174.77,70.63,159.71,72.94c-13,2-22.3,13.42-23.05,26.93a.52.52,0,0,0,1,.16C140.55,89.45,148.85,81.17,159.71,79.51Z"/><path class="cls-6" d="M98.29,79.51c-15.06-2.31-29.28,9-31.77,25.21a24.24,24.24,0,0,1,0-6.57C69,81.92,83.23,70.63,98.29,72.94c13,2,22.3,13.42,23,26.93a.52.52,0,0,1-1,.16C117.45,89.45,109.15,81.17,98.29,79.51Z"/><path class="cls-5" d="M196.61,70.56S175.92,46,145.5,52.79c-7.64,2.92-3.21,12.68,1.84,10.48C154.44,60.17,164.24,52,196.61,70.56Z"/><path class="cls-5" d="M61.39,70.56S82.08,46,112.5,52.79c7.64,2.92,3.21,12.68-1.84,10.48C103.56,60.17,93.76,52,61.39,70.56Z"/><ellipse class="cls-7" cx="172.49" cy="138.88" rx="34.05" ry="24.53" transform="translate(-43.86 186.12) rotate(-51.16)"/><ellipse class="cls-8" cx="83.66" cy="138.88" rx="24.53" ry="34.05" transform="translate(-68.6 83.18) rotate(-38.84)"/></svg>