<svg id="Ebene_1" data-name="Ebene 1" xmlns="http://www.w3.org/2000/svg" viewBox="0 0 256 256"><defs><style>.cls-1{fill:#a7b2bb;}.cls-2{fill:#7d858c;}.cls-3{fill:#3687cf;}</style></defs><title>17</title><path class="cls-1" d="M256,205.32c-93.9-14.72-145-97.62-139.25-107s5-27.54-14.56-11.08S76.94,93.64,68.63,99.49s-6,13.78,1.07,13.76S80,115,81.78,120.63C101.34,199.9,141.6,238.15,181.24,256H256Z"/><path class="cls-2" d="M85,116c-8-8-15-2-20.71-11.89-2.54,4.7.07,9.15,5.41,9.14,7.12,0,10.3,1.75,12.08,7.38C101.34,199.9,141.6,238.15,181.24,256H195.7C117.18,206,91.61,122.61,85,116Z"/><path class="cls-2" d="M144.63,145.31S139,152,134,152s6,5.57,15.49-1.71A40.14,40.14,0,0,1,144.63,145.31Z"/><path class="cls-2" d="M157.9,158.17s-8.29,5.67-14.39,5.46,8.05,6.14,19.91-.73A56.52,56.52,0,0,1,157.9,158.17Z"/><polygon class="cls-3" points="85.66 75.4 76.43 6.6 33.08 30.07 85.66 75.4"/><polygon class="cls-3" points="70.73 92.96 28.19 56.27 14.56 93.76 70.73 92.96"/><polygon class="cls-3" points="107.91 55.92 141.12 22.66 106.99 8.93 107.91 55.92"/></svg>